HIERARCHY
ROOT Hips
{
    OFFSET 11.39964485168457 82.01050567626953 -16.963790893554688
    CHANNELS 6 Xposition Yposition Zposition Zrotation Xrotation Yrotation
    JOINT RightUpLeg
    {
        OFFSET -11.39964485168457 0.0 0.0
        CHANNELS 3 Zrotation Xrotation Yrotation
        JOINT RightLeg
        {
            OFFSET 0.0 -39.60102844238281 0.0
            CHANNELS 3 Zrotation Xrotation Yrotation
            JOINT RightFoot
            {
                OFFSET 0.0 -42.40947723388672 0.0
                CHANNELS 3 Zrotation Xrotation Yrotation
                End Site RightFoot_End
                {
                    OFFSET 0.0 0.0 16.963790893554688
                }
            }
        }
    }
    JOINT LeftUpLeg
    {
        OFFSET 11.39964485168457 0.0 0.0
        CHANNELS 3 Zrotation Xrotation Yrotation
        JOINT LeftLeg
        {
            OFFSET 0.0 -39.60102844238281 0.0
            CHANNELS 3 Zrotation Xrotation Yrotation
            JOINT LeftFoot
            {
                OFFSET 0.0 -42.40947723388672 0.0
                CHANNELS 3 Zrotation Xrotation Yrotation
                End Site LeftFoot_End
                {
                    OFFSET 0.0 0.0 16.963790893554688
                }
            }
        }
    }
    JOINT Spine
    {
        OFFSET 0.0 22.50270652770996 0.0
        CHANNELS 3 Zrotation Xrotation Yrotation
        JOINT Spine3
        {
            OFFSET 0.0 25.518030166625977 0.0
            CHANNELS 3 Zrotation Xrotation Yrotation
            JOINT Neck
            {
                OFFSET 0.0 15.89531135559082 0.0
                CHANNELS 3 Zrotation Xrotation Yrotation
                End Site Head
                {
                    OFFSET 0.0 6.358124732971191 0.0
                }
            }
            JOINT LeftArm
            {
                OFFSET 15.465246200561523 0.0 0.0
                CHANNELS 3 Zrotation Xrotation Yrotation
                JOINT LeftForeArm
                {
                    OFFSET 26.370182037353516 0.0 0.0
                    CHANNELS 3 Zrotation Xrotation Yrotation
                    JOINT LeftHand
                    {
                        OFFSET 26.089740753173828 0.0 0.0
                        CHANNELS 3 Zrotation Xrotation Yrotation
                        End Site LeftWristEndSite
                        {
                            OFFSET 10.435895919799805 0.0 0.0
                        }
                    }
                }
            }
            JOINT RightArm
            {
                OFFSET -15.465246200561523 0.0 0.0
                CHANNELS 3 Zrotation Xrotation Yrotation
                JOINT RightForeArm
                {
                    OFFSET -26.370182037353516 0.0 0.0
                    CHANNELS 3 Zrotation Xrotation Yrotation
                    JOINT RightHand
                    {
                        OFFSET -26.089740753173828 0.0 0.0
                        CHANNELS 3 Zrotation Xrotation Yrotation
                        End Site RightWristEndSite
                        {
                            OFFSET -10.435895919799805 0.0 0.0
                        }
                    }
                }
            }
        }
    }
}
MOTION
Frames: 5
Frame Time: 0.03333333333333333
-0.0 82.05623626708984 0.0 -5.06921969816711 -3.5329527819931625 -17.025281532343985 14.803857725135856 20.759869362656357 -14.85444709055008 -4.063946599425394 10.248085242100457 -0.6731470071418959 0.0 0.0 1.5902773407317584e-15 1.3793554353399815 18.530750665902698 10.455460852361258 6.3961109043768625 11.236869727437119 -1.8609994398776495 -1.7241821476758432e-34 9.939233379573489e-17 1.9878466759146977e-16 1.194498886534139 -14.5378439248765 -0.1741925386334333 5.566049838379094e-07 1.5953314818815535e-06 -3.4563520183770158 8.643523772080824 2.8083253632378082 -9.031904097154522 -60.68631462028209 -34.482130842711214 -15.775726807859 -85.75056760480705 -9.697082112939132e-08 5.880460297513025e-07 0.0 0.0 0.0 46.691489460913274 -50.94792967159701 -9.258926354581323 71.34655321277145 1.154693293601192e-06 -2.989140546089917e-06 0.0 -3.975693351829396e-15 0.0
-0.0 82.05623626708984 0.0 -5.335636578420016 -4.134495810224592 -20.63096438700558 13.153308270185189 22.313985505129 -13.660247132193538 -3.813582916993157 10.522855109495145 -0.2763998259799367 4.770832022195275e-15 -1.6552148617688094e-31 -3.975693351829396e-15 0.20952147153711076 19.05921845914884 10.984124609875353 5.780366359795344 11.810760936086606 -1.4073764386386398 -7.951386703658791e-16 0.0 0.0 2.0651396592141666 -15.007176779993141 -0.20409714448166583 2.783276647080992e-07 3.362055754753009e-08 -1.1995449564938034 9.168371788924132 2.8773837834172666 -7.94287127013467 -60.78158944717349 -34.79123602536426 -16.257006541836695 -87.53900111497059 -6.771827686068968e-06 3.019755507280428e-07 0.0 6.3611093629270335e-15 0.0 46.479100383423045 -48.39296555868978 -8.442768981954126 72.54947563601131 -2.8169948686801555e-06 -8.760429199787158e-06 6.3611093629270335e-15 -3.1805546814635168e-15 1.7655625192200634e-31
-0.0 82.05623626708984 0.0 -5.423477763660579 -4.0557320252477895 -25.137477034155005 11.051747302166964 23.67075184215327 -12.877772059435356 -3.7227154550345696 9.66591723678954 0.007124442090366964 1.5902773407317584e-15 -3.975693351829396e-16 7.951386703658792e-16 -1.2920605902510094 18.528083331082346 11.336112879276703 5.3838352360565604 12.928325040207442 -1.2068764795225202 0.0 0.0 -3.975693351829396e-16 3.4880441920325262 -15.58293135221467 0.2983377325903957 1.1442055275103556e-06 -2.2856728573179017e-06 1.76880386284929 9.069895256554554 3.8718941433058305 -6.24935836370875 -59.703936204029596 -35.492407828773246 -14.646807800182357 -87.99407429711859 4.4624254048980904e-07 2.0548445633141944e-06 0.0 0.0 3.1805546814635168e-15 45.8079839923531 -48.41281977175043 -7.738086340957775 73.60061591649972 7.518078158642675e-07 -6.2633531609376625e-06 8.827812596100317e-32 -1.5902773407317584e-15 6.3611093629270335e-15
-0.0 82.05623626708984 0.0 -5.57446806121784 -3.8786942929222232 -22.706981807425212 12.670616210154032 23.320868905463815 -13.659649467971372 -4.110839811494401 9.968708446889824 -0.13480004096689435 -1.5902773407317584e-15 -3.975693351829396e-16 1.5902773407317584e-15 -0.23255696310626528 18.90121751476584 11.136558947694821 5.855971490066042 12.515994476571493 -1.501506185062521 -7.951386703658794e-16 -3.0811623476677826e-15 2.186631343506168e-15 2.8010843493866138 -16.343756686395196 0.07774110286046074 -5.494572846211512e-08 -3.987638085969676e-06 -0.46665577737643493 9.711199484033914 4.435081194769378 -6.521797701153344 -59.15094858017122 -35.36941140020091 -14.73722999787762 -88.16075986126708 1.944120574250356e-06 1.0554278895110947e-09 0.0 0.0 -3.1805546814635168e-15 44.90213053996801 -47.85393421398995 -9.986860867367097 72.1868481698556 2.379827487564401e-06 -7.53077979429866e-07 0.0 0.0 -6.3611093629270335e-15
-0.0 82.05623626708984 0.0 -6.122158481255991 -4.218141261666326 -24.307223389578894 12.529766988923384 24.623527662235634 -13.402152363759605 -3.7590182911264995 8.539227419776573 -0.09672860516761352 1.5902773407317584e-15 -2.782985346280577e-15 6.3611093629270335e-15 -0.45144305282915476 18.75899731248285 11.2238007382218 5.72345085049502 13.54314007997222 -1.4259790434632276 4.275971726236091e-32 -3.0811623476677818e-15 1.5902773407317584e-15 3.3920618542833503 -15.940841691657942 0.15250439934684232 -1.1548617667816648e-07 3.376677108813754e-06 -0.11059458535676395 10.722728481313478 4.168603634450485 -5.953012245124282 -59.2175896605913 -35.880974025960775 -15.029309443022735 -89.51211802193725 2.248792578079407e-06 -2.1015921013779356e-07 0.0 0.0 -1.5902773407317582e-15 45.001480485821986 -47.62852247023687 -10.202362194630869 71.56633587200548 -1.8738328612944609e-06 -6.287167719314292e-07 0.0 0.0 0.0
